<svg width="150" height="58" viewBox="0 0 150 58" fill="none" xmlns="http://www.w3.org/2000/svg">
<path d="M22.8827 19.7483C22.8827 25.0836 25.8516 28.8735 30.1455 32.0042C42.2555 40.8338 55.5324 50.0157 70.8441 52.2863C78.1463 53.3692 86.2136 53.006 93.5573 52.5861C103.061 52.0426 112.638 50.805 121.649 47.757C128.602 45.4049 135.1 42.7315 140.525 37.7991C142.953 35.5916 144.646 33.7575 144.91 30.4722C145.198 26.8975 144.888 23.947 142.581 21.0138C139.73 17.3897 134.839 15.3256 130.727 13.4538C127.488 11.9793 123.895 11.1735 120.484 10.1733C115.764 8.78903 110.983 7.40397 106.13 6.52655C96.745 4.82969 87.0348 4.93912 77.5245 5.06117C56.6645 5.32888 37.3759 13.3992 21.6495 26.4091C16.9639 30.2853 12.2979 34.1159 7.19252 37.466C6.46219 37.9453 5.48803 38.2197 5 38.9314" stroke="white" stroke-width="10" stroke-linecap="round"/>
</svg>
